<svg width="22" height="16" fill="none" xmlns="http://www.w3.org/2000/svg"><path d="M15.39 11.31H11.2a.5.5 0 1 1 0-1h4.19a.5.5 0 1 1 0 1Zm2.82-.31a.388.388 0 0 1-.18 0 .49.49 0 0 1-.29-.64L20.12 4a.5.5 0 0 1 .64-.29.52.52 0 0 1 .3.65l-2.38 6.33a.52.52 0 0 1-.47.31ZM8 11.19a.49.49 0 0 1-.47-.34L4.39 1.31h-3a.5.5 0 0 1-.5-.5.51.51 0 0 1 .5-.5h3.36a.51.51 0 0 1 .47.34l3.29 9.88a.49.49 0 0 1-.31.63.45.45 0 0 1-.2.03Z" fill="#fff"/><path d="M9.54 15.69a3 3 0 1 1 0-6 3 3 0 0 1 0 6Zm0-5a2 2 0 1 0 0 4 2 2 0 0 0 0-4Zm7.51 5a3 3 0 1 1 0-6 3 3 0 0 1 0 6Zm0-5a2 2 0 1 0 0 4 2 2 0 0 0 0-4Z" fill="#fff"/></svg>